<svg width="478" height="333" viewBox="0 0 478 333" fill="none" xmlns="http://www.w3.org/2000/svg">
<path d="M82.6684 157.43H14.1371C12.4317 157.43 11.175 157.071 10.3672 156.353C9.64913 155.545 9.29009 154.288 9.29009 152.583V65.3366C9.29009 63.6312 9.64913 62.4194 10.3672 61.7013C11.175 60.8935 12.4317 60.4896 14.1371 60.4896H35.0061C36.7116 60.4896 37.9233 60.8935 38.6414 61.7013C39.4492 62.4194 39.8532 63.6312 39.8532 65.3366V131.983H58.2987V110.171C58.2987 108.466 58.6577 107.254 59.3758 106.536C60.1836 105.728 61.4403 105.324 63.1457 105.324H82.6684C84.3738 105.324 85.5855 105.728 86.3036 106.536C87.1115 107.254 87.5154 108.466 87.5154 110.171V152.583C87.5154 154.288 87.1115 155.545 86.3036 156.353C85.5855 157.071 84.3738 157.43 82.6684 157.43ZM170.226 157.43H107.753C106.048 157.43 104.791 157.071 103.983 156.353C103.265 155.545 102.906 154.288 102.906 152.583V65.3366C102.906 63.6312 103.265 62.4194 103.983 61.7013C104.791 60.8935 106.048 60.4896 107.753 60.4896H170.226C171.931 60.4896 173.143 60.8935 173.861 61.7013C174.669 62.4194 175.073 63.6312 175.073 65.3366V81.0894C175.073 82.7948 174.669 84.0514 173.861 84.8592C173.143 85.5773 171.931 85.9364 170.226 85.9364H133.065V96.3036H159.32C161.025 96.3036 162.237 96.7075 162.955 97.5153C163.763 98.2334 164.167 99.4451 164.167 101.151V115.557C164.167 117.262 163.763 118.519 162.955 119.327C162.237 120.045 161.025 120.404 159.32 120.404H133.065V131.983H170.226C171.931 131.983 173.143 132.387 173.861 133.195C174.669 133.913 175.073 135.124 175.073 136.83V152.583C175.073 154.288 174.669 155.545 173.861 156.353C173.143 157.071 171.931 157.43 170.226 157.43ZM236.777 157.43H214.966C213.26 157.43 212.004 157.071 211.196 156.353C210.478 155.545 210.119 154.288 210.119 152.583V86.4749H190.327C188.622 86.4749 187.365 86.1159 186.557 85.3978C185.839 84.59 185.48 83.3333 185.48 81.6279V65.3366C185.48 63.6312 185.839 62.4194 186.557 61.7013C187.365 60.8935 188.622 60.4896 190.327 60.4896H261.416C263.122 60.4896 264.334 60.8935 265.052 61.7013C265.859 62.4194 266.263 63.6312 266.263 65.3366V81.6279C266.263 83.3333 265.859 84.59 265.052 85.3978C264.334 86.1159 263.122 86.4749 261.416 86.4749H241.624V152.583C241.624 154.288 241.221 155.545 240.413 156.353C239.695 157.071 238.483 157.43 236.777 157.43ZM294.437 110.979H284.069C282.364 110.979 281.107 110.62 280.3 109.902C279.581 109.094 279.222 107.838 279.222 106.132V100.747C279.222 99.0412 279.581 97.8295 280.3 97.1114C281.107 96.3036 282.364 95.8997 284.069 95.8997H293.36C294.526 95.8997 295.424 95.5855 296.052 94.9572C296.681 94.2391 296.995 93.2966 296.995 92.1298V90.1102H282.319C280.614 90.1102 279.357 89.7511 278.549 89.0331C277.831 88.2252 277.472 86.9686 277.472 85.2632V65.3366C277.472 63.6312 277.831 62.4194 278.549 61.7013C279.357 60.8935 280.614 60.4896 282.319 60.4896H309.516C311.222 60.4896 312.433 60.8935 313.151 61.7013C313.959 62.4194 314.363 63.6312 314.363 65.3366V90.6487C314.363 97.4704 312.523 102.587 308.843 105.998C305.253 109.319 300.45 110.979 294.437 110.979ZM374.685 157.43H332.139C330.433 157.43 329.177 157.071 328.369 156.353C327.651 155.545 327.292 154.288 327.292 152.583V136.83C327.292 135.124 327.651 133.913 328.369 133.195C329.177 132.387 330.433 131.983 332.139 131.983H368.357C369.523 131.983 370.376 131.624 370.915 130.906C371.543 130.098 371.857 129.155 371.857 128.078C371.857 126.552 371.543 125.43 370.915 124.712C370.376 123.994 369.523 123.59 368.357 123.501L348.161 120.673C341.878 119.776 336.806 117.711 332.947 114.48C329.177 111.249 327.292 105.863 327.292 98.3232V84.1861C327.292 76.5565 329.76 70.7222 334.697 66.683C339.634 62.5541 346.455 60.4896 355.162 60.4896H392.861C394.566 60.4896 395.778 60.8935 396.496 61.7013C397.304 62.4194 397.708 63.6312 397.708 65.3366V81.3586C397.708 83.0641 397.304 84.3207 396.496 85.1285C395.778 85.8466 394.566 86.2056 392.861 86.2056H361.49C360.323 86.2056 359.426 86.6096 358.797 87.4174C358.169 88.1355 357.855 89.0779 357.855 90.2448C357.855 91.4117 358.169 92.399 358.797 93.2069C359.426 94.0147 360.323 94.4635 361.49 94.5533L381.551 97.246C387.834 98.1436 392.906 100.208 396.765 103.439C400.625 106.671 402.555 112.056 402.555 119.596V133.733C402.555 141.363 400.042 147.242 395.015 151.371C390.078 155.41 383.302 157.43 374.685 157.43Z" fill="white"/>
<path d="M34.1329 43.1756L15.8938 37.9576C13.9151 37.3831 12.3992 36.6012 11.346 35.6119C10.3247 34.5906 9.81411 32.8991 9.81411 30.5375V27.0907C9.81411 24.729 10.3247 23.0535 11.346 22.0642C12.3992 21.0429 13.9151 20.2451 15.8938 19.6706L34.1329 14.4526C34.7393 14.3249 35.1701 14.3888 35.4254 14.6441C35.7127 14.8994 35.8563 15.3302 35.8563 15.9366V22.2557C35.8563 22.862 35.7127 23.3248 35.4254 23.6439C35.1701 23.9312 34.7393 24.1227 34.1329 24.2184L20.3937 27.9045C20.0746 27.9683 19.8512 28.0641 19.7235 28.1917C19.6278 28.3194 19.5799 28.5268 19.5799 28.8141C19.5799 29.1013 19.6278 29.3088 19.7235 29.4364C19.8512 29.5641 20.0746 29.6598 20.3937 29.7236L34.1329 33.4098C34.7393 33.5055 35.1701 33.7129 35.4254 34.0321C35.7127 34.3193 35.8563 34.7661 35.8563 35.3725V41.6916C35.8563 42.2979 35.7127 42.7288 35.4254 42.9841C35.1701 43.2394 34.7393 43.3032 34.1329 43.1756ZM129.505 37.9576L111.266 43.1756C110.659 43.3032 110.213 43.2394 109.925 42.9841C109.67 42.7288 109.542 42.2979 109.542 41.6916V35.3725C109.542 34.7661 109.67 34.3193 109.925 34.0321C110.213 33.7129 110.659 33.5055 111.266 33.4098L125.005 29.7236C125.324 29.6598 125.531 29.5641 125.627 29.4364C125.755 29.3088 125.819 29.1013 125.819 28.8141C125.819 28.5268 125.755 28.3194 125.627 28.1917C125.531 28.0641 125.324 27.9683 125.005 27.9045L111.266 24.2184C110.659 24.1227 110.213 23.9312 109.925 23.6439C109.67 23.3248 109.542 22.862 109.542 22.2557V15.9366C109.542 15.3302 109.67 14.8994 109.925 14.6441C110.213 14.3888 110.659 14.3249 111.266 14.4526L129.505 19.6706C131.484 20.2451 132.984 21.0429 134.005 22.0642C135.058 23.0535 135.585 24.729 135.585 27.0907V30.5375C135.585 32.8991 135.058 34.5906 134.005 35.6119C132.984 36.6012 131.484 37.3831 129.505 37.9576Z" fill="#757575"/>
<path d="M52.605 46H45.1849C44.5785 46 44.1317 45.8723 43.8445 45.617C43.5892 45.3298 43.4615 44.883 43.4615 44.2766V13.2558C43.4615 12.6494 43.5892 12.2186 43.8445 11.9633C44.1317 11.676 44.5785 11.5324 45.1849 11.5324H52.605C53.2114 11.5324 53.6422 11.676 53.8975 11.9633C54.1848 12.2186 54.3284 12.6494 54.3284 13.2558V23.6439H62.323V13.2558C62.323 12.6494 62.4506 12.2186 62.7059 11.9633C62.9932 11.676 63.44 11.5324 64.0463 11.5324H71.4664C72.0728 11.5324 72.5037 11.676 72.759 11.9633C73.0462 12.2186 73.1898 12.6494 73.1898 13.2558V44.2766C73.1898 44.883 73.0462 45.3298 72.759 45.617C72.5037 45.8723 72.0728 46 71.4664 46H64.0463C63.44 46 62.9932 45.8723 62.7059 45.617C62.4506 45.3298 62.323 44.883 62.323 44.2766V33.6491H54.3284V44.2766C54.3284 44.883 54.1848 45.3298 53.8975 45.617C53.6422 45.8723 53.2114 46 52.605 46ZM101.663 46H80.5041C79.8977 46 79.4509 45.8723 79.1637 45.617C78.9084 45.3298 78.7807 44.883 78.7807 44.2766V38.4842C78.7807 37.8778 78.9084 37.4469 79.1637 37.1916C79.4509 36.9044 79.8977 36.7608 80.5041 36.7608H85.8657V20.7716H81.4615C80.8551 20.7716 80.4083 20.644 80.1211 20.3887C79.8658 20.1014 79.7381 19.6546 79.7381 19.0483V13.2558C79.7381 12.6494 79.8658 12.2186 80.1211 11.9633C80.4083 11.676 80.8551 11.5324 81.4615 11.5324H95.3443C95.9507 11.5324 96.3815 11.676 96.6368 11.9633C96.9241 12.2186 97.0677 12.6494 97.0677 13.2558V36.7608H101.663C102.27 36.7608 102.701 36.9044 102.956 37.1916C103.243 37.4469 103.387 37.8778 103.387 38.4842V44.2766C103.387 44.883 103.243 45.3298 102.956 45.617C102.701 45.8723 102.27 46 101.663 46Z" fill="#42C6FF"/>
<path d="M348.295 318.445L330.056 313.227C328.077 312.653 326.561 311.871 325.508 310.881C324.487 309.86 323.976 308.169 323.976 305.807V302.36C323.976 299.999 324.487 298.323 325.508 297.334C326.561 296.312 328.077 295.515 330.056 294.94L348.295 289.722C348.901 289.594 349.332 289.658 349.588 289.914C349.875 290.169 350.018 290.6 350.018 291.206V297.525C350.018 298.132 349.875 298.594 349.588 298.913C349.332 299.201 348.901 299.392 348.295 299.488L334.556 303.174C334.237 303.238 334.013 303.334 333.886 303.461C333.79 303.589 333.742 303.796 333.742 304.084C333.742 304.371 333.79 304.578 333.886 304.706C334.013 304.834 334.237 304.929 334.556 304.993L348.295 308.679C348.901 308.775 349.332 308.982 349.588 309.302C349.875 309.589 350.018 310.036 350.018 310.642V316.961C350.018 317.567 349.875 317.998 349.588 318.254C349.332 318.509 348.901 318.573 348.295 318.445ZM354.656 323.855L360.4 284.217C360.464 283.61 360.608 283.18 360.831 282.924C361.086 282.637 361.517 282.493 362.124 282.493H369.065C369.671 282.493 370.118 282.637 370.405 282.924C370.725 283.18 370.852 283.61 370.788 284.217L365.044 323.855C364.98 324.461 364.82 324.892 364.565 325.147C364.342 325.434 363.927 325.578 363.32 325.578H356.379C355.773 325.578 355.31 325.434 354.991 325.147C354.703 324.892 354.592 324.461 354.656 323.855ZM460.263 313.227L442.024 318.445C441.418 318.573 440.971 318.509 440.684 318.254C440.428 317.998 440.301 317.567 440.301 316.961V310.642C440.301 310.036 440.428 309.589 440.684 309.302C440.971 308.982 441.418 308.775 442.024 308.679L455.763 304.993C456.082 304.929 456.29 304.834 456.385 304.706C456.513 304.578 456.577 304.371 456.577 304.084C456.577 303.796 456.513 303.589 456.385 303.461C456.29 303.334 456.082 303.238 455.763 303.174L442.024 299.488C441.418 299.392 440.971 299.201 440.684 298.913C440.428 298.594 440.301 298.132 440.301 297.525V291.206C440.301 290.6 440.428 290.169 440.684 289.914C440.971 289.658 441.418 289.594 442.024 289.722L460.263 294.94C462.242 295.515 463.742 296.312 464.763 297.334C465.816 298.323 466.343 299.999 466.343 302.36V305.807C466.343 308.169 465.816 309.86 464.763 310.881C463.742 311.871 462.242 312.653 460.263 313.227Z" fill="#757575"/>
<path d="M383.363 321.27H375.943C375.337 321.27 374.89 321.142 374.603 320.887C374.347 320.599 374.22 320.153 374.22 319.546V288.525C374.22 287.919 374.347 287.488 374.603 287.233C374.89 286.946 375.337 286.802 375.943 286.802H383.363C383.97 286.802 384.4 286.946 384.656 287.233C384.943 287.488 385.087 287.919 385.087 288.525V298.913H393.081V288.525C393.081 287.919 393.209 287.488 393.464 287.233C393.751 286.946 394.198 286.802 394.805 286.802H402.225C402.831 286.802 403.262 286.946 403.517 287.233C403.804 287.488 403.948 287.919 403.948 288.525V319.546C403.948 320.153 403.804 320.599 403.517 320.887C403.262 321.142 402.831 321.27 402.225 321.27H394.805C394.198 321.27 393.751 321.142 393.464 320.887C393.209 320.599 393.081 320.153 393.081 319.546V308.919H385.087V319.546C385.087 320.153 384.943 320.599 384.656 320.887C384.4 321.142 383.97 321.27 383.363 321.27ZM432.422 321.27H411.262C410.656 321.27 410.209 321.142 409.922 320.887C409.667 320.599 409.539 320.153 409.539 319.546V313.754C409.539 313.147 409.667 312.716 409.922 312.461C410.209 312.174 410.656 312.03 411.262 312.03H416.624V296.041H412.22C411.613 296.041 411.167 295.914 410.879 295.658C410.624 295.371 410.496 294.924 410.496 294.318V288.525C410.496 287.919 410.624 287.488 410.879 287.233C411.167 286.946 411.613 286.802 412.22 286.802H426.103C426.709 286.802 427.14 286.946 427.395 287.233C427.682 287.488 427.826 287.919 427.826 288.525V312.03H432.422C433.028 312.03 433.459 312.174 433.714 312.461C434.001 312.716 434.145 313.147 434.145 313.754V319.546C434.145 320.153 434.001 320.599 433.714 320.887C433.459 321.142 433.028 321.27 432.422 321.27Z" fill="#42C6FF"/>
<path d="M175.515 275.602H142.663C131.443 275.602 123.095 273.358 117.62 268.87C112.234 264.382 109.541 257.47 109.541 248.135V206.262C109.541 196.927 112.234 190.016 117.62 185.528C123.095 180.95 131.443 178.661 142.663 178.661H175.515C177.22 178.661 178.432 179.065 179.15 179.873C179.958 180.591 180.362 181.803 180.362 183.508V199.8C180.362 201.505 179.958 202.762 179.15 203.57C178.432 204.288 177.22 204.647 175.515 204.647H148.452C145.67 204.647 143.605 205.23 142.259 206.397C140.912 207.474 140.239 209.135 140.239 211.379V243.423C140.239 245.667 140.912 247.327 142.259 248.404C143.605 249.392 145.67 249.886 148.452 249.886H175.515C177.22 249.886 178.432 250.289 179.15 251.097C179.958 251.815 180.362 253.027 180.362 254.733V270.755C180.362 272.46 179.958 273.717 179.15 274.524C178.432 275.243 177.22 275.602 175.515 275.602ZM277.039 250.155C277.039 254.284 276.41 258.054 275.154 261.464C273.987 264.786 271.833 267.658 268.691 270.081C265.639 272.415 261.376 274.255 255.9 275.602C250.515 276.948 243.648 277.621 235.301 277.621C226.953 277.621 220.042 276.948 214.566 275.602C209.091 274.255 204.782 272.415 201.641 270.081C198.589 267.658 196.435 264.786 195.178 261.464C194.011 258.054 193.428 254.284 193.428 250.155V204.243C193.428 200.114 194.011 196.389 195.178 193.068C196.435 189.657 198.589 186.74 201.641 184.316C204.782 181.893 209.091 180.008 214.566 178.661C220.042 177.315 226.953 176.642 235.301 176.642C243.648 176.642 250.515 177.315 255.9 178.661C261.376 180.008 265.639 181.893 268.691 184.316C271.833 186.74 273.987 189.657 275.154 193.068C276.41 196.389 277.039 200.114 277.039 204.243V250.155ZM223.991 245.308C223.991 247.103 224.664 248.629 226.011 249.886C227.357 251.052 230.454 251.636 235.301 251.636C240.148 251.636 243.244 251.052 244.591 249.886C245.937 248.629 246.61 247.103 246.61 245.308V209.09C246.61 207.384 245.937 205.948 244.591 204.781C243.244 203.525 240.148 202.896 235.301 202.896C230.454 202.896 227.357 203.525 226.011 204.781C224.664 205.948 223.991 207.384 223.991 209.09V245.308ZM344.399 275.602H299.026C297.32 275.602 296.064 275.243 295.256 274.524C294.538 273.717 294.179 272.46 294.179 270.755V183.508C294.179 181.803 294.538 180.591 295.256 179.873C296.064 179.065 297.32 178.661 299.026 178.661H344.399C355.619 178.661 363.922 180.905 369.307 185.393C374.783 189.881 377.52 196.793 377.52 206.128V248.135C377.52 257.47 374.783 264.382 369.307 268.87C363.922 273.358 355.619 275.602 344.399 275.602ZM324.742 204.378V250.155H340.764C342.918 250.155 344.489 249.616 345.476 248.539C346.553 247.462 347.092 245.801 347.092 243.557V210.84C347.092 208.596 346.553 206.981 345.476 205.993C344.489 204.916 342.918 204.378 340.764 204.378H324.742ZM461.952 275.602H399.479C397.774 275.602 396.517 275.243 395.709 274.524C394.991 273.717 394.632 272.46 394.632 270.755V183.508C394.632 181.803 394.991 180.591 395.709 179.873C396.517 179.065 397.774 178.661 399.479 178.661H461.952C463.657 178.661 464.869 179.065 465.587 179.873C466.395 180.591 466.799 181.803 466.799 183.508V199.261C466.799 200.967 466.395 202.223 465.587 203.031C464.869 203.749 463.657 204.108 461.952 204.108H424.791V214.475H451.046C452.751 214.475 453.963 214.879 454.681 215.687C455.489 216.405 455.893 217.617 455.893 219.322V233.729C455.893 235.434 455.489 236.691 454.681 237.499C453.963 238.217 452.751 238.576 451.046 238.576H424.791V250.155H461.952C463.657 250.155 464.869 250.559 465.587 251.367C466.395 252.085 466.799 253.296 466.799 255.002V270.755C466.799 272.46 466.395 273.717 465.587 274.524C464.869 275.243 463.657 275.602 461.952 275.602Z" fill="white"/>
</svg>
