<svg width="321" height="81" viewBox="0 0 321 81" fill="none" xmlns="http://www.w3.org/2000/svg">
<path d="M14.112 72.3751L4.968 69.7591C3.976 69.4711 3.216 69.0791 2.688 68.5831C2.176 68.0711 1.92 67.2231 1.92 66.0391V64.3111C1.92 63.1271 2.176 62.2871 2.688 61.7911C3.216 61.2791 3.976 60.8791 4.968 60.5911L14.112 57.9751C14.416 57.9111 14.632 57.9431 14.76 58.0711C14.904 58.1991 14.976 58.4151 14.976 58.7191V61.8871C14.976 62.1911 14.904 62.4231 14.76 62.5831C14.632 62.7271 14.416 62.8231 14.112 62.8711L7.224 64.7191C7.064 64.7511 6.952 64.7991 6.888 64.8631C6.84 64.9271 6.816 65.0311 6.816 65.1751C6.816 65.3191 6.84 65.4231 6.888 65.4871C6.952 65.5511 7.064 65.5991 7.224 65.6311L14.112 67.4791C14.416 67.5271 14.632 67.6311 14.76 67.7911C14.904 67.9351 14.976 68.1591 14.976 68.4631V71.6311C14.976 71.9351 14.904 72.1511 14.76 72.2791C14.632 72.4071 14.416 72.4391 14.112 72.3751ZM17.3008 75.0871L20.1808 55.2151C20.2128 54.9111 20.2848 54.6951 20.3968 54.5671C20.5248 54.4231 20.7408 54.3511 21.0448 54.3511H24.5248C24.8288 54.3511 25.0528 54.4231 25.1968 54.5671C25.3568 54.6951 25.4208 54.9111 25.3888 55.2151L22.5088 75.0871C22.4768 75.3911 22.3968 75.6071 22.2688 75.7351C22.1568 75.8791 21.9488 75.9511 21.6448 75.9511H18.1648C17.8608 75.9511 17.6288 75.8791 17.4688 75.7351C17.3248 75.6071 17.2688 75.3911 17.3008 75.0871ZM71.1602 69.7591L62.0162 72.3751C61.7122 72.4391 61.4882 72.4071 61.3442 72.2791C61.2162 72.1511 61.1522 71.9351 61.1522 71.6311V68.4631C61.1522 68.1591 61.2162 67.9351 61.3442 67.7911C61.4882 67.6311 61.7122 67.5271 62.0162 67.4791L68.9042 65.6311C69.0642 65.5991 69.1682 65.5511 69.2162 65.4871C69.2802 65.4231 69.3122 65.3191 69.3122 65.1751C69.3122 65.0311 69.2802 64.9271 69.2162 64.8631C69.1682 64.7991 69.0642 64.7511 68.9042 64.7191L62.0162 62.8711C61.7122 62.8231 61.4882 62.7271 61.3442 62.5831C61.2162 62.4231 61.1522 62.1911 61.1522 61.8871V58.7191C61.1522 58.4151 61.2162 58.1991 61.3442 58.0711C61.4882 57.9431 61.7122 57.9111 62.0162 57.9751L71.1602 60.5911C72.1522 60.8791 72.9042 61.2791 73.4162 61.7911C73.9442 62.2871 74.2082 63.1271 74.2082 64.3111V66.0391C74.2082 67.2231 73.9442 68.0711 73.4162 68.5831C72.9042 69.0791 72.1522 69.4711 71.1602 69.7591Z" fill="#757575"/>
<path d="M31.6931 73.7911H27.9731C27.6691 73.7911 27.4451 73.7271 27.3011 73.5991C27.1731 73.4551 27.1091 73.2311 27.1091 72.9271V57.3751C27.1091 57.0711 27.1731 56.8551 27.3011 56.7271C27.4451 56.5831 27.6691 56.5111 27.9731 56.5111H31.6931C31.9971 56.5111 32.2131 56.5831 32.3411 56.7271C32.4851 56.8551 32.5571 57.0711 32.5571 57.3751V62.5831H36.5651V57.3751C36.5651 57.0711 36.6291 56.8551 36.7571 56.7271C36.9011 56.5831 37.1251 56.5111 37.4291 56.5111H41.1491C41.4531 56.5111 41.6691 56.5831 41.7971 56.7271C41.9411 56.8551 42.0131 57.0711 42.0131 57.3751V72.9271C42.0131 73.2311 41.9411 73.4551 41.7971 73.5991C41.6691 73.7271 41.4531 73.7911 41.1491 73.7911H37.4291C37.1251 73.7911 36.9011 73.7271 36.7571 73.5991C36.6291 73.4551 36.5651 73.2311 36.5651 72.9271V67.5991H32.5571V72.9271C32.5571 73.2311 32.4851 73.4551 32.3411 73.5991C32.2131 73.7271 31.9971 73.7911 31.6931 73.7911ZM56.9121 73.7911H45.4881C45.1841 73.7911 44.9601 73.7271 44.8161 73.5991C44.6881 73.4551 44.6241 73.2311 44.6241 72.9271V68.7991C44.6241 67.8711 44.7121 67.1111 44.8881 66.5191C45.0801 65.9111 45.3441 65.4151 45.6801 65.0311C46.0161 64.6471 46.4161 64.3431 46.8801 64.1191C47.3441 63.8951 47.8481 63.7031 48.3921 63.5431L51.6081 62.5351C51.8641 62.4711 52.0321 62.3751 52.1121 62.2471C52.2081 62.1191 52.2561 61.9271 52.2561 61.6711C52.2561 61.4311 52.2081 61.2711 52.1121 61.1911C52.0161 61.0951 51.8481 61.0471 51.6081 61.0471H46.4001C46.0961 61.0471 45.8721 60.9831 45.7281 60.8551C45.6001 60.7111 45.5361 60.4871 45.5361 60.1831V57.3751C45.5361 57.0711 45.6001 56.8551 45.7281 56.7271C45.8721 56.5831 46.0961 56.5111 46.4001 56.5111H53.4801C54.8401 56.5111 55.8801 56.8551 56.6001 57.5431C57.3361 58.2151 57.7041 59.1991 57.7041 60.4951V62.7511C57.7041 63.9511 57.3681 64.8711 56.6961 65.5111C56.0241 66.1511 55.1121 66.6471 53.9601 66.9991L50.6961 68.0311C50.4561 68.0951 50.2881 68.1671 50.1921 68.2471C50.1121 68.3271 50.0721 68.4951 50.0721 68.7511V69.2551H56.9121C57.2161 69.2551 57.4321 69.3271 57.5601 69.4711C57.7041 69.5991 57.7761 69.8151 57.7761 70.1191V72.9271C57.7761 73.2311 57.7041 73.4551 57.5601 73.5991C57.4321 73.7271 57.2161 73.7911 56.9121 73.7911Z" fill="#42C6FF"/>
<path d="M14.112 21.584L4.968 18.968C3.976 18.68 3.216 18.288 2.688 17.792C2.176 17.28 1.92 16.432 1.92 15.248V13.52C1.92 12.336 2.176 11.496 2.688 11C3.216 10.488 3.976 10.088 4.968 9.8L14.112 7.184C14.416 7.12 14.632 7.152 14.76 7.28C14.904 7.408 14.976 7.624 14.976 7.928V11.096C14.976 11.4 14.904 11.632 14.76 11.792C14.632 11.936 14.416 12.032 14.112 12.08L7.224 13.928C7.064 13.96 6.952 14.008 6.888 14.072C6.84 14.136 6.816 14.24 6.816 14.384C6.816 14.528 6.84 14.632 6.888 14.696C6.952 14.76 7.064 14.808 7.224 14.84L14.112 16.688C14.416 16.736 14.632 16.84 14.76 17C14.904 17.144 14.976 17.368 14.976 17.672V20.84C14.976 21.144 14.904 21.36 14.76 21.488C14.632 21.616 14.416 21.648 14.112 21.584ZM62.8399 18.968L53.6959 21.584C53.3919 21.648 53.1679 21.616 53.0239 21.488C52.8959 21.36 52.8319 21.144 52.8319 20.84V17.672C52.8319 17.368 52.8959 17.144 53.0239 17C53.1679 16.84 53.3919 16.736 53.6959 16.688L60.5839 14.84C60.7439 14.808 60.8479 14.76 60.8959 14.696C60.9599 14.632 60.9919 14.528 60.9919 14.384C60.9919 14.24 60.9599 14.136 60.8959 14.072C60.8479 14.008 60.7439 13.96 60.5839 13.928L53.6959 12.08C53.3919 12.032 53.1679 11.936 53.0239 11.792C52.8959 11.632 52.8319 11.4 52.8319 11.096V7.928C52.8319 7.624 52.8959 7.408 53.0239 7.28C53.1679 7.152 53.3919 7.12 53.6959 7.184L62.8399 9.8C63.8319 10.088 64.5839 10.488 65.0959 11C65.6239 11.496 65.8879 12.336 65.8879 13.52V15.248C65.8879 16.432 65.6239 17.28 65.0959 17.792C64.5839 18.288 63.8319 18.68 62.8399 18.968Z" fill="#757575"/>
<path d="M23.3728 23H19.6528C19.3488 23 19.1248 22.936 18.9808 22.808C18.8528 22.664 18.7888 22.44 18.7888 22.136V6.584C18.7888 6.28 18.8528 6.064 18.9808 5.936C19.1248 5.792 19.3488 5.72 19.6528 5.72H23.3728C23.6768 5.72 23.8928 5.792 24.0208 5.936C24.1648 6.064 24.2368 6.28 24.2368 6.584V11.792H28.2448V6.584C28.2448 6.28 28.3088 6.064 28.4368 5.936C28.5808 5.792 28.8048 5.72 29.1088 5.72H32.8288C33.1328 5.72 33.3488 5.792 33.4768 5.936C33.6208 6.064 33.6928 6.28 33.6928 6.584V22.136C33.6928 22.44 33.6208 22.664 33.4768 22.808C33.3488 22.936 33.1328 23 32.8288 23H29.1088C28.8048 23 28.5808 22.936 28.4368 22.808C28.3088 22.664 28.2448 22.44 28.2448 22.136V16.808H24.2368V22.136C24.2368 22.44 24.1648 22.664 24.0208 22.808C23.8928 22.936 23.6768 23 23.3728 23ZM48.5918 23H37.1678C36.8638 23 36.6398 22.936 36.4958 22.808C36.3678 22.664 36.3038 22.44 36.3038 22.136V18.008C36.3038 17.08 36.3918 16.32 36.5678 15.728C36.7598 15.12 37.0238 14.624 37.3598 14.24C37.6958 13.856 38.0958 13.552 38.5598 13.328C39.0238 13.104 39.5278 12.912 40.0718 12.752L43.2878 11.744C43.5438 11.68 43.7118 11.584 43.7918 11.456C43.8878 11.328 43.9358 11.136 43.9358 10.88C43.9358 10.64 43.8878 10.48 43.7918 10.4C43.6958 10.304 43.5278 10.256 43.2878 10.256H38.0798C37.7758 10.256 37.5518 10.192 37.4078 10.064C37.2798 9.92 37.2158 9.696 37.2158 9.392V6.584C37.2158 6.28 37.2798 6.064 37.4078 5.936C37.5518 5.792 37.7758 5.72 38.0798 5.72H45.1598C46.5198 5.72 47.5598 6.064 48.2798 6.752C49.0158 7.424 49.3838 8.408 49.3838 9.704V11.96C49.3838 13.16 49.0478 14.08 48.3758 14.72C47.7038 15.36 46.7918 15.856 45.6398 16.208L42.3758 17.24C42.1358 17.304 41.9678 17.376 41.8718 17.456C41.7918 17.536 41.7518 17.704 41.7518 17.96V18.464H48.5918C48.8958 18.464 49.1118 18.536 49.2398 18.68C49.3838 18.808 49.4557 19.024 49.4557 19.328V22.136C49.4557 22.44 49.3838 22.664 49.2398 22.808C49.1118 22.936 48.8958 23 48.5918 23Z" fill="#42C6FF"/>
<path d="M14.736 48.3956H2.52C2.216 48.3956 1.992 48.3316 1.848 48.2036C1.72 48.0596 1.656 47.8356 1.656 47.5316V31.9796C1.656 31.6756 1.72 31.4596 1.848 31.3316C1.992 31.1876 2.216 31.1156 2.52 31.1156H6.24C6.544 31.1156 6.76 31.1876 6.888 31.3316C7.032 31.4596 7.104 31.6756 7.104 31.9796V43.8596H10.392V39.9716C10.392 39.6676 10.456 39.4516 10.584 39.3236C10.728 39.1796 10.952 39.1076 11.256 39.1076H14.736C15.04 39.1076 15.256 39.1796 15.384 39.3236C15.528 39.4516 15.6 39.6676 15.6 39.9716V47.5316C15.6 47.8356 15.528 48.0596 15.384 48.2036C15.256 48.3316 15.04 48.3956 14.736 48.3956ZM30.3435 48.3956H19.2075C18.9035 48.3956 18.6795 48.3316 18.5355 48.2036C18.4075 48.0596 18.3435 47.8356 18.3435 47.5316V31.9796C18.3435 31.6756 18.4075 31.4596 18.5355 31.3316C18.6795 31.1876 18.9035 31.1156 19.2075 31.1156H30.3435C30.6475 31.1156 30.8635 31.1876 30.9915 31.3316C31.1355 31.4596 31.2075 31.6756 31.2075 31.9796V34.7876C31.2075 35.0916 31.1355 35.3156 30.9915 35.4596C30.8635 35.5876 30.6475 35.6516 30.3435 35.6516H23.7195V37.4996H28.3995C28.7035 37.4996 28.9195 37.5716 29.0475 37.7156C29.1915 37.8436 29.2635 38.0596 29.2635 38.3636V40.9316C29.2635 41.2356 29.1915 41.4596 29.0475 41.6036C28.9195 41.7316 28.7035 41.7956 28.3995 41.7956H23.7195V43.8596H30.3435C30.6475 43.8596 30.8635 43.9316 30.9915 44.0756C31.1355 44.2036 31.2075 44.4196 31.2075 44.7236V47.5316C31.2075 47.8356 31.1355 48.0596 30.9915 48.2036C30.8635 48.3316 30.6475 48.3956 30.3435 48.3956ZM42.2066 48.3956H38.3186C38.0146 48.3956 37.7906 48.3316 37.6466 48.2036C37.5186 48.0596 37.4546 47.8356 37.4546 47.5316V35.7476H33.9266C33.6226 35.7476 33.3986 35.6836 33.2546 35.5556C33.1266 35.4116 33.0626 35.1876 33.0626 34.8836V31.9796C33.0626 31.6756 33.1266 31.4596 33.2546 31.3316C33.3986 31.1876 33.6226 31.1156 33.9266 31.1156H46.5986C46.9026 31.1156 47.1186 31.1876 47.2466 31.3316C47.3906 31.4596 47.4626 31.6756 47.4626 31.9796V34.8836C47.4626 35.1876 47.3906 35.4116 47.2466 35.5556C47.1186 35.6836 46.9026 35.7476 46.5986 35.7476H43.0706V47.5316C43.0706 47.8356 42.9986 48.0596 42.8546 48.2036C42.7266 48.3316 42.5106 48.3956 42.2066 48.3956ZM52.4846 40.1156H50.6366C50.3326 40.1156 50.1086 40.0516 49.9646 39.9236C49.8366 39.7796 49.7726 39.5556 49.7726 39.2516V38.2916C49.7726 37.9876 49.8366 37.7716 49.9646 37.6436C50.1086 37.4996 50.3326 37.4276 50.6366 37.4276H52.2926C52.5006 37.4276 52.6606 37.3716 52.7726 37.2596C52.8846 37.1316 52.9406 36.9636 52.9406 36.7556V36.3956H50.3246C50.0206 36.3956 49.7966 36.3316 49.6526 36.2036C49.5246 36.0596 49.4606 35.8356 49.4606 35.5316V31.9796C49.4606 31.6756 49.5246 31.4596 49.6526 31.3316C49.7966 31.1876 50.0206 31.1156 50.3246 31.1156H55.1726C55.4766 31.1156 55.6926 31.1876 55.8206 31.3316C55.9646 31.4596 56.0366 31.6756 56.0366 31.9796V36.4916C56.0366 37.7076 55.7086 38.6196 55.0526 39.2276C54.4126 39.8196 53.5566 40.1156 52.4846 40.1156ZM66.7892 48.3956H59.2052C58.9012 48.3956 58.6772 48.3316 58.5332 48.2036C58.4052 48.0596 58.3412 47.8356 58.3412 47.5316V44.7236C58.3412 44.4196 58.4052 44.2036 58.5332 44.0756C58.6772 43.9316 58.9012 43.8596 59.2052 43.8596H65.6612C65.8692 43.8596 66.0212 43.7956 66.1172 43.6676C66.2292 43.5236 66.2852 43.3556 66.2852 43.1636C66.2852 42.8916 66.2292 42.6916 66.1172 42.5636C66.0212 42.4356 65.8692 42.3636 65.6612 42.3476L62.0612 41.8436C60.9412 41.6836 60.0372 41.3156 59.3492 40.7396C58.6772 40.1636 58.3412 39.2036 58.3412 37.8596V35.3396C58.3412 33.9796 58.7812 32.9396 59.6612 32.2196C60.5412 31.4836 61.7572 31.1156 63.3092 31.1156H70.0292C70.3332 31.1156 70.5492 31.1876 70.6772 31.3316C70.8212 31.4596 70.8932 31.6756 70.8932 31.9796V34.8356C70.8932 35.1396 70.8212 35.3636 70.6772 35.5076C70.5492 35.6356 70.3332 35.6996 70.0292 35.6996H64.4372C64.2292 35.6996 64.0692 35.7716 63.9572 35.9156C63.8452 36.0436 63.7892 36.2116 63.7892 36.4196C63.7892 36.6276 63.8452 36.8036 63.9572 36.9476C64.0692 37.0916 64.2292 37.1716 64.4372 37.1876L68.0132 37.6676C69.1332 37.8276 70.0372 38.1956 70.7252 38.7716C71.4132 39.3476 71.7572 40.3076 71.7572 41.6516V44.1716C71.7572 45.5316 71.3092 46.5796 70.4132 47.3156C69.5332 48.0356 68.3252 48.3956 66.7892 48.3956ZM92.9732 48.3956H85.4132C83.4132 48.3956 81.9252 47.9956 80.9492 47.1956C79.9892 46.3956 79.5092 45.1636 79.5092 43.4996V36.0116C79.5092 34.3476 79.9892 33.1156 80.9492 32.3156C81.9252 31.5156 83.4132 31.1156 85.4132 31.1156H91.4132C91.7172 31.1156 91.9332 31.1876 92.0612 31.3316C92.2052 31.4596 92.2772 31.6756 92.2772 31.9796V34.8836C92.2772 35.1876 92.2052 35.4116 92.0612 35.5556C91.9332 35.6836 91.7172 35.7476 91.4132 35.7476H86.4212C85.9252 35.7476 85.5572 35.8516 85.3172 36.0596C85.0772 36.2516 84.9572 36.5476 84.9572 36.9476V42.6836C84.9572 43.0836 85.0452 43.3796 85.2212 43.5716C85.4132 43.7636 85.6932 43.8596 86.0612 43.8596H88.3892V40.1156C88.3892 39.8116 88.4532 39.5956 88.5812 39.4676C88.7252 39.3236 88.9492 39.2516 89.2532 39.2516H92.9732C93.2772 39.2516 93.4932 39.3236 93.6212 39.4676C93.7652 39.5956 93.8372 39.8116 93.8372 40.1156V47.5316C93.8372 47.8356 93.7652 48.0596 93.6212 48.2036C93.4932 48.3316 93.2772 48.3956 92.9732 48.3956ZM111.405 43.8596C111.405 44.5956 111.293 45.2676 111.069 45.8756C110.861 46.4676 110.477 46.9796 109.917 47.4116C109.373 47.8276 108.613 48.1556 107.637 48.3956C106.677 48.6356 105.453 48.7556 103.965 48.7556C102.477 48.7556 101.245 48.6356 100.269 48.3956C99.2934 48.1556 98.5254 47.8276 97.9654 47.4116C97.4214 46.9796 97.0374 46.4676 96.8134 45.8756C96.6054 45.2676 96.5014 44.5956 96.5014 43.8596V35.6756C96.5014 34.9396 96.6054 34.2756 96.8134 33.6836C97.0374 33.0756 97.4214 32.5556 97.9654 32.1236C98.5254 31.6916 99.2934 31.3556 100.269 31.1156C101.245 30.8756 102.477 30.7556 103.965 30.7556C105.453 30.7556 106.677 30.8756 107.637 31.1156C108.613 31.3556 109.373 31.6916 109.917 32.1236C110.477 32.5556 110.861 33.0756 111.069 33.6836C111.293 34.2756 111.405 34.9396 111.405 35.6756V43.8596ZM101.949 42.9956C101.949 43.3156 102.069 43.5876 102.309 43.8116C102.549 44.0196 103.101 44.1236 103.965 44.1236C104.829 44.1236 105.381 44.0196 105.621 43.8116C105.861 43.5876 105.981 43.3156 105.981 42.9956V36.5396C105.981 36.2356 105.861 35.9796 105.621 35.7716C105.381 35.5476 104.829 35.4356 103.965 35.4356C103.101 35.4356 102.549 35.5476 102.309 35.7716C102.069 35.9796 101.949 36.2356 101.949 36.5396V42.9956ZM127.777 48.3956H123.889C123.585 48.3956 123.361 48.3316 123.217 48.2036C123.089 48.0596 123.025 47.8356 123.025 47.5316V35.7476H119.497C119.193 35.7476 118.969 35.6836 118.825 35.5556C118.697 35.4116 118.633 35.1876 118.633 34.8836V31.9796C118.633 31.6756 118.697 31.4596 118.825 31.3316C118.969 31.1876 119.193 31.1156 119.497 31.1156H132.169C132.473 31.1156 132.689 31.1876 132.817 31.3316C132.961 31.4596 133.033 31.6756 133.033 31.9796V34.8836C133.033 35.1876 132.961 35.4116 132.817 35.5556C132.689 35.6836 132.473 35.7476 132.169 35.7476H128.641V47.5316C128.641 47.8356 128.569 48.0596 128.425 48.2036C128.297 48.3316 128.081 48.3956 127.777 48.3956ZM149.89 43.8596C149.89 44.5956 149.778 45.2676 149.554 45.8756C149.346 46.4676 148.962 46.9796 148.402 47.4116C147.858 47.8276 147.098 48.1556 146.122 48.3956C145.162 48.6356 143.938 48.7556 142.45 48.7556C140.962 48.7556 139.73 48.6356 138.754 48.3956C137.778 48.1556 137.01 47.8276 136.45 47.4116C135.906 46.9796 135.522 46.4676 135.298 45.8756C135.09 45.2676 134.986 44.5956 134.986 43.8596V35.6756C134.986 34.9396 135.09 34.2756 135.298 33.6836C135.522 33.0756 135.906 32.5556 136.45 32.1236C137.01 31.6916 137.778 31.3556 138.754 31.1156C139.73 30.8756 140.962 30.7556 142.45 30.7556C143.938 30.7556 145.162 30.8756 146.122 31.1156C147.098 31.3556 147.858 31.6916 148.402 32.1236C148.962 32.5556 149.346 33.0756 149.554 33.6836C149.778 34.2756 149.89 34.9396 149.89 35.6756V43.8596ZM140.434 42.9956C140.434 43.3156 140.554 43.5876 140.794 43.8116C141.034 44.0196 141.586 44.1236 142.45 44.1236C143.314 44.1236 143.866 44.0196 144.106 43.8116C144.346 43.5876 144.466 43.3156 144.466 42.9956V36.5396C144.466 36.2356 144.346 35.9796 144.106 35.7716C143.866 35.5476 143.314 35.4356 142.45 35.4356C141.586 35.4356 141.034 35.5476 140.794 35.7716C140.554 35.9796 140.434 36.2356 140.434 36.5396V42.9956ZM166.261 48.3956H162.373C162.069 48.3956 161.845 48.3316 161.701 48.2036C161.573 48.0596 161.509 47.8356 161.509 47.5316V35.7476H157.981C157.677 35.7476 157.453 35.6836 157.309 35.5556C157.181 35.4116 157.117 35.1876 157.117 34.8836V31.9796C157.117 31.6756 157.181 31.4596 157.309 31.3316C157.453 31.1876 157.677 31.1156 157.981 31.1156H170.653C170.957 31.1156 171.173 31.1876 171.301 31.3316C171.445 31.4596 171.517 31.6756 171.517 31.9796V34.8836C171.517 35.1876 171.445 35.4116 171.301 35.5556C171.173 35.6836 170.957 35.7476 170.653 35.7476H167.125V47.5316C167.125 47.8356 167.053 48.0596 166.909 48.2036C166.781 48.3316 166.565 48.3956 166.261 48.3956ZM178.435 48.3956H174.715C174.411 48.3956 174.187 48.3316 174.043 48.2036C173.915 48.0596 173.851 47.8356 173.851 47.5316V31.9796C173.851 31.6756 173.915 31.4596 174.043 31.3316C174.187 31.1876 174.411 31.1156 174.715 31.1156H178.435C178.739 31.1156 178.955 31.1876 179.083 31.3316C179.227 31.4596 179.299 31.6756 179.299 31.9796V37.1876H183.307V31.9796C183.307 31.6756 183.371 31.4596 183.499 31.3316C183.643 31.1876 183.867 31.1156 184.171 31.1156H187.891C188.195 31.1156 188.411 31.1876 188.539 31.3316C188.683 31.4596 188.755 31.6756 188.755 31.9796V47.5316C188.755 47.8356 188.683 48.0596 188.539 48.2036C188.411 48.3316 188.195 48.3956 187.891 48.3956H184.171C183.867 48.3956 183.643 48.3316 183.499 48.2036C183.371 48.0596 183.307 47.8356 183.307 47.5316V42.2036H179.299V47.5316C179.299 47.8356 179.227 48.0596 179.083 48.2036C178.955 48.3316 178.739 48.3956 178.435 48.3956ZM204.062 48.3956H192.926C192.622 48.3956 192.398 48.3316 192.254 48.2036C192.126 48.0596 192.062 47.8356 192.062 47.5316V31.9796C192.062 31.6756 192.126 31.4596 192.254 31.3316C192.398 31.1876 192.622 31.1156 192.926 31.1156H204.062C204.366 31.1156 204.582 31.1876 204.71 31.3316C204.854 31.4596 204.926 31.6756 204.926 31.9796V34.7876C204.926 35.0916 204.854 35.3156 204.71 35.4596C204.582 35.5876 204.366 35.6516 204.062 35.6516H197.438V37.4996H202.118C202.422 37.4996 202.638 37.5716 202.766 37.7156C202.91 37.8436 202.982 38.0596 202.982 38.3636V40.9316C202.982 41.2356 202.91 41.4596 202.766 41.6036C202.638 41.7316 202.422 41.7956 202.118 41.7956H197.438V43.8596H204.062C204.366 43.8596 204.582 43.9316 204.71 44.0756C204.854 44.2036 204.926 44.4196 204.926 44.7236V47.5316C204.926 47.8356 204.854 48.0596 204.71 48.2036C204.582 48.3316 204.366 48.3956 204.062 48.3956ZM217.74 48.3956H214.02C213.716 48.3956 213.492 48.3316 213.348 48.2036C213.22 48.0596 213.156 47.8356 213.156 47.5316V31.9796C213.156 31.6756 213.22 31.4596 213.348 31.3316C213.492 31.1876 213.716 31.1156 214.02 31.1156H224.724C225.028 31.1156 225.244 31.1876 225.372 31.3316C225.516 31.4596 225.588 31.6756 225.588 31.9796V34.8356C225.588 35.1396 225.516 35.3636 225.372 35.5076C225.244 35.6356 225.028 35.6996 224.724 35.6996H218.604V38.1956H222.78C223.084 38.1956 223.3 38.2676 223.428 38.4116C223.572 38.5396 223.644 38.7556 223.644 39.0596V41.9396C223.644 42.2436 223.572 42.4676 223.428 42.6116C223.3 42.7396 223.084 42.8036 222.78 42.8036H218.604V47.5316C218.604 47.8356 218.532 48.0596 218.388 48.2036C218.26 48.3316 218.044 48.3956 217.74 48.3956ZM242.704 43.8596C242.704 44.5956 242.592 45.2676 242.368 45.8756C242.16 46.4676 241.776 46.9796 241.216 47.4116C240.672 47.8276 239.92 48.1556 238.96 48.3956C238 48.6356 236.776 48.7556 235.288 48.7556C233.8 48.7556 232.576 48.6356 231.616 48.3956C230.656 48.1556 229.896 47.8276 229.336 47.4116C228.792 46.9796 228.408 46.4676 228.184 45.8756C227.976 45.2676 227.872 44.5956 227.872 43.8596V31.9796C227.872 31.6756 227.936 31.4596 228.064 31.3316C228.208 31.1876 228.432 31.1156 228.736 31.1156H232.504C232.808 31.1156 233.024 31.1876 233.152 31.3316C233.296 31.4596 233.368 31.6756 233.368 31.9796V42.9236C233.368 43.2436 233.488 43.5156 233.728 43.7396C233.968 43.9476 234.504 44.0516 235.336 44.0516C236.184 44.0516 236.728 43.9476 236.968 43.7396C237.208 43.5156 237.328 43.2436 237.328 42.9236V31.9796C237.328 31.6756 237.392 31.4596 237.52 31.3316C237.664 31.1876 237.888 31.1156 238.192 31.1156H241.84C242.144 31.1156 242.36 31.1876 242.488 31.3316C242.632 31.4596 242.704 31.6756 242.704 31.9796V43.8596ZM254.058 48.3956H250.17C249.866 48.3956 249.642 48.3316 249.498 48.2036C249.37 48.0596 249.306 47.8356 249.306 47.5316V35.7476H245.778C245.474 35.7476 245.25 35.6836 245.106 35.5556C244.978 35.4116 244.914 35.1876 244.914 34.8836V31.9796C244.914 31.6756 244.978 31.4596 245.106 31.3316C245.25 31.1876 245.474 31.1156 245.778 31.1156H258.45C258.754 31.1156 258.97 31.1876 259.098 31.3316C259.242 31.4596 259.314 31.6756 259.314 31.9796V34.8836C259.314 35.1876 259.242 35.4116 259.098 35.5556C258.97 35.6836 258.754 35.7476 258.45 35.7476H254.922V47.5316C254.922 47.8356 254.85 48.0596 254.706 48.2036C254.578 48.3316 254.362 48.3956 254.058 48.3956ZM276.36 43.8596C276.36 44.5956 276.248 45.2676 276.024 45.8756C275.816 46.4676 275.432 46.9796 274.872 47.4116C274.328 47.8276 273.576 48.1556 272.616 48.3956C271.656 48.6356 270.432 48.7556 268.944 48.7556C267.456 48.7556 266.232 48.6356 265.272 48.3956C264.312 48.1556 263.552 47.8276 262.992 47.4116C262.448 46.9796 262.064 46.4676 261.84 45.8756C261.632 45.2676 261.528 44.5956 261.528 43.8596V31.9796C261.528 31.6756 261.592 31.4596 261.72 31.3316C261.864 31.1876 262.088 31.1156 262.392 31.1156H266.16C266.464 31.1156 266.68 31.1876 266.808 31.3316C266.952 31.4596 267.024 31.6756 267.024 31.9796V42.9236C267.024 43.2436 267.144 43.5156 267.384 43.7396C267.624 43.9476 268.16 44.0516 268.992 44.0516C269.84 44.0516 270.384 43.9476 270.624 43.7396C270.864 43.5156 270.984 43.2436 270.984 42.9236V31.9796C270.984 31.6756 271.048 31.4596 271.176 31.3316C271.32 31.1876 271.544 31.1156 271.848 31.1156H275.496C275.8 31.1156 276.016 31.1876 276.144 31.3316C276.288 31.4596 276.36 31.6756 276.36 31.9796V43.8596ZM284.978 35.4356V38.5076H286.778C287.194 38.5076 287.474 38.4036 287.618 38.1956C287.762 37.9716 287.834 37.6996 287.834 37.3796V36.5636C287.834 36.2436 287.762 35.9796 287.618 35.7716C287.474 35.5476 287.194 35.4356 286.778 35.4356H284.978ZM284.114 48.3956H280.418C280.114 48.3956 279.89 48.3316 279.746 48.2036C279.618 48.0596 279.554 47.8356 279.554 47.5316V31.9796C279.554 31.6756 279.618 31.4596 279.746 31.3316C279.89 31.1876 280.114 31.1156 280.418 31.1156H288.41C290.202 31.1156 291.434 31.4916 292.106 32.2436C292.794 32.9796 293.138 33.9396 293.138 35.1236V36.2276C293.138 36.8996 293.034 37.4756 292.826 37.9556C292.634 38.4196 292.29 38.7556 291.794 38.9636C292.658 39.0596 293.354 39.4116 293.882 40.0196C294.426 40.6276 294.698 41.4356 294.698 42.4436V47.5316C294.698 47.8356 294.626 48.0596 294.482 48.2036C294.354 48.3316 294.138 48.3956 293.834 48.3956H290.114C289.81 48.3956 289.586 48.3316 289.442 48.2036C289.314 48.0596 289.25 47.8356 289.25 47.5316V43.8596C289.25 43.5076 289.178 43.2516 289.034 43.0916C288.906 42.9156 288.674 42.8276 288.338 42.8276H284.978V47.5316C284.978 47.8356 284.906 48.0596 284.762 48.2036C284.634 48.3316 284.418 48.3956 284.114 48.3956ZM309.39 48.3956H298.254C297.95 48.3956 297.726 48.3316 297.582 48.2036C297.454 48.0596 297.39 47.8356 297.39 47.5316V31.9796C297.39 31.6756 297.454 31.4596 297.582 31.3316C297.726 31.1876 297.95 31.1156 298.254 31.1156H309.39C309.694 31.1156 309.91 31.1876 310.038 31.3316C310.182 31.4596 310.254 31.6756 310.254 31.9796V34.7876C310.254 35.0916 310.182 35.3156 310.038 35.4596C309.91 35.5876 309.694 35.6516 309.39 35.6516H302.766V37.4996H307.446C307.75 37.4996 307.966 37.5716 308.094 37.7156C308.238 37.8436 308.31 38.0596 308.31 38.3636V40.9316C308.31 41.2356 308.238 41.4596 308.094 41.6036C307.966 41.7316 307.75 41.7956 307.446 41.7956H302.766V43.8596H309.39C309.694 43.8596 309.91 43.9316 310.038 44.0756C310.182 44.2036 310.254 44.4196 310.254 44.7236V47.5316C310.254 47.8356 310.182 48.0596 310.038 48.2036C309.91 48.3316 309.694 48.3956 309.39 48.3956Z" fill="white"/>
</svg>
